<svg id="レイヤー_1" data-name="レイヤー 1" xmlns="http://www.w3.org/2000/svg" viewBox="0 0 443.77 405.64"><defs><style>.cls-1{fill:#fff;}</style></defs><title>neartech group.White①</title><path class="cls-1" d="M589.31,354.92l-5.49,3.47q-7.16-9.47-19.59-9.45a23,23,0,0,0-16.39,6.3,20.54,20.54,0,0,0-6.61,15.56,21.81,21.81,0,0,0,6.56,15.87,22.19,22.19,0,0,0,16.52,6.61,24.06,24.06,0,0,0,19.55-9.52l5.5,3.66a26.41,26.41,0,0,1-10.94,9.09,35,35,0,0,1-14.81,3.19q-12.55,0-21-8.22a27.18,27.18,0,0,1-8.44-20.17,27.83,27.83,0,0,1,8.47-20.44q8.49-8.52,21.85-8.55a31.69,31.69,0,0,1,14.52,3.34A24.46,24.46,0,0,1,589.31,354.92Z" transform="translate(-204.22 -103.03)"/><path class="cls-1" d="M400.49,343.49h7.14v7.85a27.1,27.1,0,0,1,5.54-7,9.15,9.15,0,0,1,6-2.25,13.85,13.85,0,0,1,6.68,1.81l-3.66,5.92a6.09,6.09,0,0,0-3.16-.91c-2.11,0-4.09,1.1-6,3.27a20.62,20.62,0,0,0-4.11,8.42q-1.32,5.15-1.29,18.7l0,18.35h-7.14Z" transform="translate(-204.22 -103.03)"/><path class="cls-1" d="M204.22,343.82h7l0,9.68q8.34-11.12,20.26-11.14a19.15,19.15,0,0,1,11,3.29,18,18,0,0,1,7,8.65q2,5.35,2.06,15.75l0,27.82h-6.93l0-25.79c0-6.32-.31-10.59-.89-12.84a15.82,15.82,0,0,0-2.66-5.7,11.5,11.5,0,0,0-4.55-3.56,16.27,16.27,0,0,0-6.67-1.2,16.67,16.67,0,0,0-7.69,1.94,18.91,18.91,0,0,0-6.41,5.41,19.55,19.55,0,0,0-3.55,7.15q-.92,3.66-.9,14.77l0,19.88h-7Z" transform="translate(-204.22 -103.03)"/><path class="cls-1" d="M450.53,389c0,1.83.24,2.93.72,3.26s1.7.51,3.67.5h4.18v5.91a44.68,44.68,0,0,1-6.73.73q-4.58,0-6.73-2.24c-1.43-1.49-2.14-3.83-2.15-7l-.07-40.77-9.58,0v-5.92h9.58l0-20.89h7l0,20.89,11,0v5.91l-11,0Z" transform="translate(-204.22 -103.03)"/><path class="cls-1" d="M497,392.86q13.76,0,20.57-13l5.91,3.05q-8.74,16.32-25.86,16.35-12.22,0-20.19-8.38a29.7,29.7,0,0,1,0-40.5,26.08,26.08,0,0,1,19.75-8.49,27.05,27.05,0,0,1,19.78,7.81q8,7.83,8.34,21.38l-48.71.08q.33,9.79,6.19,15.74A19.2,19.2,0,0,0,497,392.86Zm20.54-27.76A19,19,0,0,0,510.34,353a21,21,0,0,0-13.16-4.36q-15.29,0-19.94,16.54Z" transform="translate(-204.22 -103.03)"/><path class="cls-1" d="M600.58,322.26h7l0,30.57q8.34-11.11,20.26-11.13a19.15,19.15,0,0,1,11,3.29,18,18,0,0,1,7,8.65q2,5.36,2.06,15.74l0,27.82-7,0-.05-25.79a84.27,84.27,0,0,0-.53-11.51,16.58,16.58,0,0,0-2.25-6,11.48,11.48,0,0,0-4.64-4.32,15.45,15.45,0,0,0-7-1.46,17.05,17.05,0,0,0-7.89,1.95,18.8,18.8,0,0,0-6.41,5.41,19.46,19.46,0,0,0-3.56,7.14c-.6,2.44-.9,7.38-.89,14.78l0,19.87h-7Z" transform="translate(-204.22 -103.03)"/><path class="cls-1" d="M289.66,393.21q13.75,0,20.57-13l5.91,3q-8.73,16.31-25.85,16.35-12.24,0-20.2-8.38a29.71,29.71,0,0,1,0-40.51,26.12,26.12,0,0,1,19.75-8.49,27.17,27.17,0,0,1,19.79,7.81q8,7.85,8.34,21.39l-48.72.08q.33,9.8,6.2,15.74a19.17,19.17,0,0,0,14.22,5.94Zm20.54-27.76a19,19,0,0,0-7.15-12.12A21,21,0,0,0,289.89,349q-15.28,0-19.94,16.54Z" transform="translate(-204.22 -103.03)"/><path class="cls-1" d="M381.76,343.52l.09,54.12H375l0-9.27q-9.25,11.12-21.18,11.14A26.83,26.83,0,0,1,333.69,391a28.17,28.17,0,0,1-8.24-20.26,27.83,27.83,0,0,1,8.22-20.2,26.74,26.74,0,0,1,19.76-8.43q13.24,0,21.52,11.27v-9.89Zm-6.37,27.33a21.51,21.51,0,0,0-6.24-15.63,20.46,20.46,0,0,0-15.25-6.35,20.14,20.14,0,0,0-15.22,6.6,22.38,22.38,0,0,0,.15,31.08A20.28,20.28,0,0,0,354,393.1a20.7,20.7,0,0,0,15.13-6.34A21.61,21.61,0,0,0,375.39,370.85Z" transform="translate(-204.22 -103.03)"/><path class="cls-1" d="M328,434.72h7l.07,41.8q0,11.12-1.91,16.32a22.67,22.67,0,0,1-5.59,8.67,24.77,24.77,0,0,1-8.86,5.31,34.19,34.19,0,0,1-11.42,1.86q-21.19,0-28-16.88l7.55,0q5.93,10.61,20.1,10.57a25.14,25.14,0,0,0,11.87-2.67,15.83,15.83,0,0,0,7.12-6.79q2.09-4.12,2.07-12.89v-2.35a26.44,26.44,0,0,1-9.88,7.77,29.13,29.13,0,0,1-12,2.56A27,27,0,0,1,287,441.52a27.87,27.87,0,0,1,20.22-8.19q11.86,0,20.86,10.77Zm.36,26.2a20.55,20.55,0,0,0-20.94-20.86,21.68,21.68,0,0,0-21.78,21.34,19.15,19.15,0,0,0,6,14.21q6,5.85,15.4,5.84t15.34-5.74Q328.39,470,328.37,460.92Z" transform="translate(-204.22 -103.03)"/><path class="cls-1" d="M349.58,434.68h7.13l0,7.85a27.27,27.27,0,0,1,5.54-7,9.15,9.15,0,0,1,6-2.25,13.76,13.76,0,0,1,6.68,1.82L371.3,441a6,6,0,0,0-3.16-.91c-2.11,0-4.09,1.09-6,3.27a20.5,20.5,0,0,0-4.11,8.42q-1.32,5.14-1.3,18.7l0,18.35-7.14,0Z" transform="translate(-204.22 -103.03)"/><path class="cls-1" d="M380.41,462.06a28.24,28.24,0,0,1,8.17-20.4,27.81,27.81,0,0,1,40-.07,29.24,29.24,0,0,1,.17,40.52,28.11,28.11,0,0,1-40.11.07A27.89,27.89,0,0,1,380.41,462.06Zm49.34,0a21.79,21.79,0,0,0-6.29-15.53,20.08,20.08,0,0,0-29.72,0,22,22,0,0,0-6.19,15.66,21.47,21.47,0,0,0,6,15.38,19.76,19.76,0,0,0,14.94,6.3,20.18,20.18,0,0,0,15.08-6.4A21.41,21.41,0,0,0,429.75,462.07Z" transform="translate(-204.22 -103.03)"/><path class="cls-1" d="M496.26,488.57h-7l0-9.68Q480.87,490,468.94,490a19.15,19.15,0,0,1-11-3.29A18,18,0,0,1,451,478.1q-2-5.36-2.06-15.75l-.05-27.83h6.93l0,25.79q0,9.48.89,12.84a16,16,0,0,0,2.66,5.71,11.37,11.37,0,0,0,4.55,3.55,16.29,16.29,0,0,0,6.67,1.22,16.57,16.57,0,0,0,7.7-1.95,18.91,18.91,0,0,0,6.41-5.41,19.69,19.69,0,0,0,3.56-7.14q.92-3.67.89-14.79l0-19.88h7Z" transform="translate(-204.22 -103.03)"/><path class="cls-1" d="M511.77,434.41h6.93l0,9.89Q527,433,540.2,432.94a26.65,26.65,0,0,1,19.7,8.38,27.82,27.82,0,0,1,8.29,20.22,28.21,28.21,0,0,1-8.12,20.3,26.22,26.22,0,0,1-19.56,8.49q-12.43,0-21.74-11.07l.05,29.05h-6.93Zm49.49,27.24a21.53,21.53,0,0,0-6.3-15.53,21.42,21.42,0,0,0-30.58-.06,21.76,21.76,0,0,0-6.14,15.77,21.45,21.45,0,0,0,6.34,15.73,21.11,21.11,0,0,0,30.33-.15A21.61,21.61,0,0,0,561.26,461.65Z" transform="translate(-204.22 -103.03)"/><g id="SvgjsG1794"><g id="SvgjsG1795"><path class="cls-1" d="M560.75,269.9c-5.24-3.73-9.6-6.76-10.68-5.59s1.67,6.41,7,10.87,11.14,5.74,12.1,3.85S566,273.64,560.75,269.9Z" transform="translate(-204.22 -103.03)"/><path class="cls-1" d="M544.65,272.22c-4.77-5-8.67-8-9.49-6s2.09,8.35,7.18,13.63S552.52,287,553,284.7,549.4,277.22,544.65,272.22Z" transform="translate(-204.22 -103.03)"/><path class="cls-1" d="M528.66,272.5c-4.51-5.31-8.24-7.45-8.87-4.35a24.76,24.76,0,0,0,7.56,15.64c5,5.41,9.59,6.8,9.69,3.63A32.31,32.31,0,0,0,528.66,272.5Z" transform="translate(-204.22 -103.03)"/><path class="cls-1" d="M512.32,272.65c-4.46-5-8.22-5.89-8.68-1.65a26.33,26.33,0,0,0,8.14,17.05c5.07,5.11,9.32,5.49,9.16,1.21A34,34,0,0,0,512.32,272.65Z" transform="translate(-204.22 -103.03)"/><path class="cls-1" d="M495.33,273.3c-4.59-4.47-8.5-3.88-8.83,1.45a26.16,26.16,0,0,0,8.85,18c5.26,4.58,9.34,3.67,9-1.74A32.09,32.09,0,0,0,495.33,273.3Z" transform="translate(-204.22 -103.03)"/><path class="cls-1" d="M477.46,274.41c-4.84-3.75-9-1.76-9.25,4.54a25,25,0,0,0,9.63,18.69c5.54,4,9.62,1.7,9.15-4.8A28.82,28.82,0,0,0,477.46,274.41Z" transform="translate(-204.22 -103.03)"/><path class="cls-1" d="M459.1,277.24c-5-3.78-9.46-1.84-10,4.37a24,24,0,0,0,9.27,18.78c5.63,4.15,10.09,2.05,9.93-4.51A27,27,0,0,0,459.1,277.24Z" transform="translate(-204.22 -103.03)"/><path class="cls-1" d="M439.66,280.66c-5-4.22-9.73-3.18-10.6,2.26a22.79,22.79,0,0,0,8.44,18.19c5.59,4.66,10.48,3.67,10.77-2.21A25.62,25.62,0,0,0,439.66,280.66Z" transform="translate(-204.22 -103.03)"/><path class="cls-1" d="M419,283.07c-5-4.65-9.87-4.57-11.07,0a21.09,21.09,0,0,0,7.52,17.36c5.44,5.11,10.66,5.28,11.39.23A23.86,23.86,0,0,0,419,283.07Z" transform="translate(-204.22 -103.03)"/><path class="cls-1" d="M397.3,284.23c-4.78-5.23-9.71-6.3-11.3-2.67A19,19,0,0,0,392.09,298c5.08,5.61,10.51,7.15,11.78,3.14A21.79,21.79,0,0,0,397.3,284.23Z" transform="translate(-204.22 -103.03)"/><path class="cls-1" d="M374.42,283.52c-4.49-5.47-9.31-7.35-11.08-4.53s.35,9.47,5,15.2,10,8.19,11.58,5.09S378.9,289,374.42,283.52Z" transform="translate(-204.22 -103.03)"/><path class="cls-1" d="M351,281.21c-4.08-5.59-8.66-8.15-10.49-6s-.18,8.21,4,13.94,9.19,8.85,11,6.58S355,286.79,351,281.21Z" transform="translate(-204.22 -103.03)"/><path class="cls-1" d="M327.39,277.6c-3.6-5.61-7.8-8.71-9.6-7.19s-.52,7.15,3,12.8,8.14,9.18,10,7.61S331,283.19,327.39,277.6Z" transform="translate(-204.22 -103.03)"/><path class="cls-1" d="M304.28,273.11c-3.09-5.61-6.87-9.2-8.56-8.16s-.68,6.34,2.36,11.94,7,9.42,8.77,8.39S307.38,278.71,304.28,273.11Z" transform="translate(-204.22 -103.03)"/><path class="cls-1" d="M275,258.53c1.55-.62,4.73,3.62,7.09,9.47s3,11.11,1.45,11.74-4.72-3.61-7.08-9.47S273.42,259.16,275,258.53Z" transform="translate(-204.22 -103.03)"/><path class="cls-1" d="M543.47,241.32c-2.79-5.21-5.25-9.21-6.38-8.31s-.24,6.53,2.78,12.11,6.83,8.6,7.71,7.34S546.24,246.55,543.47,241.32Z" transform="translate(-204.22 -103.03)"/><path class="cls-1" d="M531,239.58c-2.71-5.64-5.32-9.06-6.51-7.21a19.9,19.9,0,0,0,3,14.11c3.14,5.79,6.81,8.5,7.55,6.51A27.9,27.9,0,0,0,531,239.58Z" transform="translate(-204.22 -103.03)"/><path class="cls-1" d="M517.38,237.72c-2.82-5.55-5.76-7.92-7-5a21.83,21.83,0,0,0,3.57,15.58c3.38,5.6,7,7.49,7.7,4.55A30.7,30.7,0,0,0,517.38,237.72Z" transform="translate(-204.22 -103.03)"/><path class="cls-1" d="M502.55,236.42c-3.1-5.15-6.49-6.2-7.77-2.21a22.07,22.07,0,0,0,4.32,16.57c3.74,5.15,7.47,5.93,8.09,2A29.93,29.93,0,0,0,502.55,236.42Z" transform="translate(-204.22 -103.03)"/><path class="cls-1" d="M486.49,235.81c-3.49-4.52-7.38-4.17-8.65.81a21.26,21.26,0,0,0,5.22,17.21c4.16,4.55,8.05,4.07,8.66-.91A27.11,27.11,0,0,0,486.49,235.81Z" transform="translate(-204.22 -103.03)"/><path class="cls-1" d="M469.27,235.78c-4-3.76-8.38-2.07-9.62,3.78a19.92,19.92,0,0,0,6.21,17.57c4.62,3.88,8.74,2.13,9.35-3.81A23.65,23.65,0,0,0,469.27,235.78Z" transform="translate(-204.22 -103.03)"/><path class="cls-1" d="M451.19,237.61c-4.17-3.71-8.81-2-10.2,3.75a18.91,18.91,0,0,0,6.16,17.38c4.76,3.91,9.2,2.25,10-3.68A21.85,21.85,0,0,0,451.19,237.61Z" transform="translate(-204.22 -103.03)"/><path class="cls-1" d="M432.07,240.3c-4.22-4-8.9-3-10.42,2A18,18,0,0,0,427.4,259c4.7,4.23,9.38,3.44,10.41-1.85A20.57,20.57,0,0,0,432.07,240.3Z" transform="translate(-204.22 -103.03)"/><path class="cls-1" d="M412,242.56c-4.2-4.25-8.88-4.05-10.51.27a16.83,16.83,0,0,0,5.26,15.79c4.57,4.5,9.4,4.57,10.64,0A19.17,19.17,0,0,0,412,242.56Z" transform="translate(-204.22 -103.03)"/><path class="cls-1" d="M391.36,244.28c-4-4.68-8.61-5.45-10.42-1.94a15.59,15.59,0,0,0,4.31,15c4.27,4.87,9.15,6,10.69,2.3A17.73,17.73,0,0,0,391.36,244.28Z" transform="translate(-204.22 -103.03)"/><path class="cls-1" d="M369.85,244.94c-3.81-4.86-8.27-6.31-10.13-3.47s-.25,9,3.73,14,8.74,6.83,10.42,3.84A16,16,0,0,0,369.85,244.94Z" transform="translate(-204.22 -103.03)"/><path class="cls-1" d="M347.9,244.68c-3.55-5-7.8-7.05-9.64-4.81s-.48,8,3.15,13,8.16,7.47,9.91,5.15S351.45,249.65,347.9,244.68Z" transform="translate(-204.22 -103.03)"/><path class="cls-1" d="M325.76,243.58c-3.25-5.08-7.23-7.71-9-6s-.64,7.12,2.63,12.23,7.45,8,9.2,6.26S329,248.65,325.76,243.58Z" transform="translate(-204.22 -103.03)"/><path class="cls-1" d="M303.7,241.73c-2.93-5.2-6.6-8.37-8.27-7.15s-.69,6.41,2.22,11.62,6.7,8.5,8.38,7.27S306.63,246.94,303.7,241.73Z" transform="translate(-204.22 -103.03)"/><path class="cls-1" d="M274.12,231c1.54-.81,5.05,2.87,7.84,8.22s3.79,10.33,2.25,11.14-5.06-2.88-7.84-8.23S272.57,231.76,274.12,231Z" transform="translate(-204.22 -103.03)"/><path class="cls-1" d="M538.8,208.92c-.53-5.75-1.39-10.19-2.78-9.6s-2.47,6.23-1.63,12.28,3,10,4.05,9.09A24.42,24.42,0,0,0,538.8,208.92Z" transform="translate(-204.22 -103.03)"/><path class="cls-1" d="M528.12,204.48c-.76-5.94-2.28-9.66-4-8a19.87,19.87,0,0,0-1.31,14.19c1.24,6.06,3.73,9.29,5,7.52A28.86,28.86,0,0,0,528.12,204.48Z" transform="translate(-204.22 -103.03)"/><path class="cls-1" d="M515.65,200.88c-1.19-5.75-3.5-8.36-5.51-5.57a21.12,21.12,0,0,0-.64,15.61c1.79,5.74,4.68,8,6.07,5.19A29.78,29.78,0,0,0,515.65,200.88Z" transform="translate(-204.22 -103.03)"/><path class="cls-1" d="M501.48,198.4c-1.77-5.28-4.92-6.52-7.14-2.61a20.56,20.56,0,0,0,.32,16.52c2.43,5.2,5.76,6.21,7.31,2.4A27.66,27.66,0,0,0,501.48,198.4Z" transform="translate(-204.22 -103.03)"/><path class="cls-1" d="M485.75,197c-2.45-4.61-6.44-4.36-8.76.56a19,19,0,0,0,1.48,17c3.1,4.51,6.91,4.22,8.58-.59A24.22,24.22,0,0,0,485.75,197Z" transform="translate(-204.22 -103.03)"/><path class="cls-1" d="M468.64,196.64c-3.19-3.81-7.95-2.1-10.3,3.7a17.07,17.07,0,0,0,2.76,17.2c3.78,3.77,8.06,2.17,9.84-3.57A20.58,20.58,0,0,0,468.64,196.64Z" transform="translate(-204.22 -103.03)"/><path class="cls-1" d="M450.3,198.45c-3.48-3.65-8.46-1.84-10.81,3.88a16.1,16.1,0,0,0,3.12,16.87c4,3.69,8.53,2.08,10.39-3.66A18.87,18.87,0,0,0,450.3,198.45Z" transform="translate(-204.22 -103.03)"/><path class="cls-1" d="M430.8,201.52a6.12,6.12,0,0,0-10.66,2.39,15.31,15.31,0,0,0,3.2,16,5.8,5.8,0,0,0,10.42-2.11A17.6,17.6,0,0,0,430.8,201.52Z" transform="translate(-204.22 -103.03)"/><path class="cls-1" d="M410.56,204.55a5.9,5.9,0,0,0-8.12-1.89,6,6,0,0,0-2.32,2.71,14.47,14.47,0,0,0,3.2,15.14c3.9,4.1,8.53,4,10.35-.51A16.33,16.33,0,0,0,410.56,204.55Z" transform="translate(-204.22 -103.03)"/><path class="cls-1" d="M389.9,207.42c-3.43-4.37-8-4.83-10.1-1.22a13.81,13.81,0,0,0,2.75,14.38c3.67,4.43,8.24,5.21,10.14,1.54A15.51,15.51,0,0,0,389.9,207.42Z" transform="translate(-204.22 -103.03)"/><path class="cls-1" d="M368.61,209.57c-3.34-4.52-7.69-5.62-9.72-2.66a13,13,0,0,0,2.64,13.48c3.5,4.55,7.93,6,9.8,2.94A14.24,14.24,0,0,0,368.61,209.57Z" transform="translate(-204.22 -103.03)"/><path class="cls-1" d="M347,211c-3.22-4.64-7.35-6.36-9.27-4s-.82,8,2.48,12.64,7.52,6.63,9.35,4.22S350.23,215.68,347,211Z" transform="translate(-204.22 -103.03)"/><path class="cls-1" d="M325.26,211.78c-3-4.79-6.94-7.09-8.74-5.26s-.77,7.15,2.31,11.95,7,7.27,8.8,5.42S328.3,216.55,325.26,211.78Z" transform="translate(-204.22 -103.03)"/><path class="cls-1" d="M303.5,211.71c-2.85-5-6.49-7.86-8.16-6.51s-.72,6.45,2.13,11.44,6.51,8,8.18,6.58S306.34,216.68,303.5,211.71Z" transform="translate(-204.22 -103.03)"/><path class="cls-1" d="M273.7,203.26c1.55-.91,5.21,2.45,8.2,7.5s4.15,9.88,2.61,10.79-5.21-2.44-8.19-7.5S272.16,204.17,273.7,203.26Z" transform="translate(-204.22 -103.03)"/><path class="cls-1" d="M546.84,177c1.73-5.78,2.52-10.79.88-11s-4.79,4.85-6.21,11-.85,10.89.46,10.69S545.1,182.76,546.84,177Z" transform="translate(-204.22 -103.03)"/><path class="cls-1" d="M537.8,167.22c1.3-6.19.93-10.63-1.44-9.54a20.87,20.87,0,0,0-6.07,13.76c-.78,6.36.55,10.23,2.35,9A28.46,28.46,0,0,0,537.8,167.22Z" transform="translate(-204.22 -103.03)"/><path class="cls-1" d="M526.08,159.73c.56-6.13-1.16-9.37-4.14-6.83a23.51,23.51,0,0,0-5.34,15.8c.11,6.06,2.3,8.72,4.58,6.29A30.85,30.85,0,0,0,526.08,159.73Z" transform="translate(-204.22 -103.03)"/><path class="cls-1" d="M511.85,154.9c-.4-5.66-3.51-7.24-6.9-3.27a22.78,22.78,0,0,0-4.12,17.06c1.11,5.41,4.19,6.62,6.89,2.93A29.14,29.14,0,0,0,511.85,154.9Z" transform="translate(-204.22 -103.03)"/><path class="cls-1" d="M495.42,152.69c-1.48-4.86-5.88-4.55-9.51.7A19.92,19.92,0,0,0,483.4,171c2.11,4.52,6.06,4.17,9.06-.73A24.82,24.82,0,0,0,495.42,152.69Z" transform="translate(-204.22 -103.03)"/><path class="cls-1" d="M477.19,152.76c-2.6-3.83-8.12-1.66-11.79,4.65a16.65,16.65,0,0,0-.72,17.63c3.1,3.55,7.83,1.64,11-4.37A20.09,20.09,0,0,0,477.19,152.76Z" transform="translate(-204.22 -103.03)"/><path class="cls-1" d="M457.2,156.18c-3-3.51-8.71-1-12.19,5.25a15.27,15.27,0,0,0,.2,17.14c3.43,3.33,8.37,1.23,11.48-4.86A17.89,17.89,0,0,0,457.2,156.18Z" transform="translate(-204.22 -103.03)"/><path class="cls-1" d="M436,161.62c-3.14-3.59-8.5-1.75-11.61,3.82a14.34,14.34,0,0,0,.89,16.2c3.46,3.49,8.29,2,11.08-3.44A16.4,16.4,0,0,0,436,161.62Z" transform="translate(-204.22 -103.03)"/><path class="cls-1" d="M414.21,167.35c-3.21-3.72-8.26-2.63-11,2.19a13.49,13.49,0,0,0,1.44,15.18,6.18,6.18,0,0,0,10.67-1.82A15.09,15.09,0,0,0,414.21,167.35Z" transform="translate(-204.22 -103.03)"/><path class="cls-1" d="M392.32,172.93a5.93,5.93,0,0,0-8.08-2.3,6,6,0,0,0-2.28,2.25,13.12,13.12,0,0,0,1.46,14.41c3.31,4.09,7.82,4.33,10.17.37A14.48,14.48,0,0,0,392.32,172.93Z" transform="translate(-204.22 -103.03)"/><path class="cls-1" d="M370.12,177.61c-3.09-4.27-7.53-5-9.82-1.71a12.44,12.44,0,0,0,1.78,13.45c3.24,4.27,7.56,5.22,9.71,2A13.41,13.41,0,0,0,370.12,177.61Z" transform="translate(-204.22 -103.03)"/><path class="cls-1" d="M347.88,181.21c-3.05-4.45-7.24-5.87-9.3-3.31a11.92,11.92,0,0,0,2,12.61c3.13,4.46,7.26,6.08,9.23,3.51A12.59,12.59,0,0,0,347.88,181.21Z" transform="translate(-204.22 -103.03)"/><path class="cls-1" d="M325.67,183.5c-2.95-4.66-6.89-6.8-8.76-4.87s-.92,7.24,2.08,11.93,6.89,6.95,8.71,5S328.63,188.15,325.67,183.5Z" transform="translate(-204.22 -103.03)"/><path class="cls-1" d="M303.62,184.26c-2.82-4.93-6.49-7.79-8.19-6.44s-.76,6.48,2.07,11.45,6.47,7.89,8.16,6.48S306.44,189.18,303.62,184.26Z" transform="translate(-204.22 -103.03)"/><path class="cls-1" d="M273.86,175.33c1.54-.85,5.13,2.68,8,7.89s4,10.12,2.41,11-5.13-2.67-8-7.88S272.31,176.19,273.86,175.33Z" transform="translate(-204.22 -103.03)"/><path class="cls-1" d="M567.63,150c4-5.17,6.41-10.69,4.48-12.06s-7.11,2.6-10.74,8.48-4.66,11-3.11,11.67S563.62,155.19,567.63,150Z" transform="translate(-204.22 -103.03)"/><path class="cls-1" d="M560,133.51c3.27-6.28,3.93-11.74.89-11.52s-8.07,6.26-10.72,12.85-2.41,11.12,0,10.61S556.73,139.82,560,133.51Z" transform="translate(-204.22 -103.03)"/><path class="cls-1" d="M548.49,120.44c2.15-6.69.84-11-3.14-8.87a27.18,27.18,0,0,0-9.85,16.17c-1.4,6.59.26,9.88,3.47,7.93A31.65,31.65,0,0,0,548.49,120.44Z" transform="translate(-204.22 -103.03)"/><path class="cls-1" d="M533.37,111.6c.77-6.41-2.52-8.72-7.16-4.7a27.86,27.86,0,0,0-8.28,18.3c0,6,3.05,7.59,7,4A32.19,32.19,0,0,0,533.37,111.6Z" transform="translate(-204.22 -103.03)"/><path class="cls-1" d="M515.23,107.12c-.75-5.54-5.83-5.46-10.85.28a24.29,24.29,0,0,0-6.22,19.25c1.39,4.93,5.75,4.68,10.15-.43A28.51,28.51,0,0,0,515.23,107.12Z" transform="translate(-204.22 -103.03)"/><path class="cls-1" d="M494.7,106.57c-2.27-4.28-8.84-1.76-13.95,5.34a19.23,19.23,0,0,0-3.88,19.28c2.7,3.71,8.21,1.54,12.91-5A22.77,22.77,0,0,0,494.7,106.57Z" transform="translate(-204.22 -103.03)"/><path class="cls-1" d="M471.83,110.92c-2.84-3.73-9.55-.59-14.29,6.57s-5.58,15.3-2.45,18.62,8.84.76,13.3-6S474.68,114.64,471.83,110.92Z" transform="translate(-204.22 -103.03)"/><path class="cls-1" d="M447.53,118.44c-3-3.66-9.16-1.1-13.25,5.29a15.38,15.38,0,0,0-1.22,17.41c3.22,3.41,8.6,1.43,12.47-4.71A17.67,17.67,0,0,0,447.53,118.44Z" transform="translate(-204.22 -103.03)"/><path class="cls-1" d="M423,126.86c-3.08-3.7-8.75-1.93-12.26,3.6a14,14,0,0,0-.15,16.13c3.27,3.54,8.34,2.28,11.66-3.09A15.72,15.72,0,0,0,423,126.86Z" transform="translate(-204.22 -103.03)"/><path class="cls-1" d="M398.59,135.36a6.52,6.52,0,0,0-11.18,1.15,13.47,13.47,0,0,0,.27,15.13,6.2,6.2,0,0,0,10.76-.73A14.83,14.83,0,0,0,398.59,135.36Z" transform="translate(-204.22 -103.03)"/><path class="cls-1" d="M374.31,142.89a6.08,6.08,0,0,0-10.38-.71,12.45,12.45,0,0,0,1,13.92c3.11,4.11,7.56,4.66,10.08,1A13.32,13.32,0,0,0,374.31,142.89Z" transform="translate(-204.22 -103.03)"/><path class="cls-1" d="M350.42,149.06c-3-4.33-7.42-5.37-9.69-2.52a11.74,11.74,0,0,0,1.55,12.86c3.07,4.31,7.27,5.61,9.47,2.76A12.32,12.32,0,0,0,350.42,149.06Z" transform="translate(-204.22 -103.03)"/><path class="cls-1" d="M327,153.46c-3-4.54-7.06-6.41-9-4.3s-1.09,7.45,1.9,12,6.94,6.6,8.89,4.46S329.93,158,327,153.46Z" transform="translate(-204.22 -103.03)"/><path class="cls-1" d="M304.06,155.72c-2.85-4.83-6.63-7.55-8.37-6.12s-.81,6.54,2,11.45,6.54,7.67,8.28,6.17S306.91,160.55,304.06,155.72Z" transform="translate(-204.22 -103.03)"/><path class="cls-1" d="M273.83,147.47c1.56-.86,5.15,2.67,8,7.88s3.95,10.14,2.39,11-5.15-2.67-8-7.89S272.28,148.33,273.83,147.47Z" transform="translate(-204.22 -103.03)"/></g></g></svg>