<svg id="レイヤー_1" data-name="レイヤー 1" xmlns="http://www.w3.org/2000/svg" viewBox="0 0 443.68 405.29"><defs><style>.cls-1{fill:#040000;}.cls-2{fill:#231815;}</style></defs><title>neartech group.black①</title><path class="cls-1" d="M589.21,355.19l-5.5,3.47q-7.14-9.48-19.57-9.49a23,23,0,0,0-16.4,6.27A20.53,20.53,0,0,0,541.11,371a21.84,21.84,0,0,0,6.52,15.89,22.18,22.18,0,0,0,16.51,6.63A24,24,0,0,0,583.71,384l5.5,3.67a26.48,26.48,0,0,1-11,9.07,35,35,0,0,1-14.82,3.16q-12.54,0-20.94-8.26a27.17,27.17,0,0,1-8.41-20.17,27.89,27.89,0,0,1,8.51-20.44q8.5-8.51,21.86-8.5A31.71,31.71,0,0,1,579,345.92,24.49,24.49,0,0,1,589.21,355.19Z" transform="translate(-204.14 -103.18)"/><path class="cls-1" d="M400.41,343.45h7.14v7.85a27.42,27.42,0,0,1,5.55-7,9.14,9.14,0,0,1,6-2.24,13.88,13.88,0,0,1,6.68,1.83l-3.67,5.91a6.1,6.1,0,0,0-3.16-.92q-3.16,0-6,3.26a20.54,20.54,0,0,0-4.13,8.41q-1.32,5.14-1.32,18.7v18.35h-7.14Z" transform="translate(-204.14 -103.18)"/><path class="cls-1" d="M204.14,343.45h7v9.68q8.36-11.1,20.28-11.1a19.23,19.23,0,0,1,11,3.3,18,18,0,0,1,6.93,8.67q2,5.36,2,15.75v27.82H244.5V371.78c0-6.32-.29-10.59-.87-12.84a15.94,15.94,0,0,0-2.65-5.71,11.49,11.49,0,0,0-4.54-3.57,16.43,16.43,0,0,0-6.67-1.21,16.66,16.66,0,0,0-7.69,1.93,18.92,18.92,0,0,0-6.42,5.4,19.49,19.49,0,0,0-3.57,7.14q-.92,3.66-.92,14.77v19.88h-7Z" transform="translate(-204.14 -103.18)"/><path class="cls-1" d="M450.38,389c0,1.84.23,2.93.71,3.27s1.7.5,3.67.5h4.18v5.92a44.29,44.29,0,0,1-6.73.71q-4.59,0-6.73-2.25t-2.14-7V349.36h-9.58v-5.91h9.58V322.56h7v20.89h11v5.91h-11Z" transform="translate(-204.14 -103.18)"/><path class="cls-2" d="M496.79,393q13.75,0,20.59-12.94l5.9,3.06q-8.76,16.29-25.88,16.3-12.22,0-20.18-8.41a29.7,29.7,0,0,1,.06-40.51A26.08,26.08,0,0,1,497,342a27.12,27.12,0,0,1,19.77,7.84q8,7.85,8.31,21.4H476.41q.3,9.8,6.16,15.75a19.22,19.22,0,0,0,14.22,6Zm20.59-27.73a19.09,19.09,0,0,0-7.14-12.12,21,21,0,0,0-13.15-4.38q-15.29,0-20,16.5Z" transform="translate(-204.14 -103.18)"/><path class="cls-1" d="M600.53,322.56h7v30.57q8.36-11.1,20.28-11.1a19.23,19.23,0,0,1,11,3.3,18,18,0,0,1,6.93,8.67q2,5.36,2,15.75v27.82h-7V371.78a85.27,85.27,0,0,0-.51-11.51,16.84,16.84,0,0,0-2.25-6,11.48,11.48,0,0,0-4.63-4.33,15.32,15.32,0,0,0-7-1.47,17,17,0,0,0-7.89,1.93,18.92,18.92,0,0,0-6.42,5.4,19.49,19.49,0,0,0-3.57,7.14q-.91,3.66-.92,14.77v19.88h-7Z" transform="translate(-204.14 -103.18)"/><path class="cls-1" d="M289.5,393q13.75,0,20.59-12.94l5.9,3.06q-8.76,16.29-25.88,16.3-12.23,0-20.17-8.41a29.68,29.68,0,0,1,.05-40.51A26.1,26.1,0,0,1,289.75,342a27.12,27.12,0,0,1,19.77,7.84q8,7.85,8.31,21.4H269.12q.3,9.8,6.16,15.75a19.22,19.22,0,0,0,14.22,6Zm20.59-27.73A19,19,0,0,0,303,353.13a21,21,0,0,0-13.14-4.38q-15.3,0-20,16.5Z" transform="translate(-204.14 -103.18)"/><path class="cls-1" d="M381.68,343.45v54.12h-6.82v-9.28q-9.28,11.1-21.2,11.11a26.89,26.89,0,0,1-20.13-8.51,28.19,28.19,0,0,1-8.2-20.28,27.79,27.79,0,0,1,8.25-20.18,26.73,26.73,0,0,1,19.77-8.4q13.25,0,21.51,11.31v-9.89Zm-6.42,27.31a21.55,21.55,0,0,0-6.21-15.64,20.48,20.48,0,0,0-15.24-6.37,20.12,20.12,0,0,0-15.23,6.58,22.39,22.39,0,0,0,.1,31.08A20.28,20.28,0,0,0,353.81,393a20.64,20.64,0,0,0,15.13-6.32A21.56,21.56,0,0,0,375.26,370.76Z" transform="translate(-204.14 -103.18)"/><path class="cls-1" d="M327.78,434.56h7v41.8q0,11.1-1.94,16.31a22.41,22.41,0,0,1-5.61,8.66,24.61,24.61,0,0,1-8.86,5.3A34,34,0,0,1,307,508.47q-21.21,0-27.93-16.93h7.54q5.91,10.6,20.08,10.6a25.32,25.32,0,0,0,11.88-2.64,15.91,15.91,0,0,0,7.13-6.79q2.1-4.12,2.09-12.89v-2.34a26.56,26.56,0,0,1-9.88,7.75,29.35,29.35,0,0,1-12,2.54,27,27,0,0,1-19.17-46.48,27.91,27.91,0,0,1,20.24-8.16q11.87,0,20.84,10.81Zm.31,26.2a20.53,20.53,0,0,0-20.9-20.9,21.65,21.65,0,0,0-21.81,21.31,19.12,19.12,0,0,0,6,14.22q6,5.85,15.39,5.86t15.35-5.71Q328.09,469.83,328.09,460.76Z" transform="translate(-204.14 -103.18)"/><path class="cls-1" d="M349.34,434.56h7.14v7.85a27.5,27.5,0,0,1,5.56-7,9.19,9.19,0,0,1,6-2.24,14,14,0,0,1,6.68,1.83l-3.67,5.92a6.1,6.1,0,0,0-3.16-.92q-3.16,0-6,3.27a20.31,20.31,0,0,0-4.13,8.4q-1.33,5.16-1.33,18.71v18.35h-7.14Z" transform="translate(-204.14 -103.18)"/><path class="cls-1" d="M380.13,462a28.26,28.26,0,0,1,8.21-20.4,27.82,27.82,0,0,1,40,0,29.27,29.27,0,0,1,.1,40.53,28.12,28.12,0,0,1-40.11,0A27.9,27.9,0,0,1,380.13,462Zm49.34.09a21.76,21.76,0,0,0-6.27-15.54,20.06,20.06,0,0,0-29.71,0,22,22,0,0,0-6.22,15.64,21.49,21.49,0,0,0,6,15.4,19.8,19.8,0,0,0,14.94,6.32,20.17,20.17,0,0,0,15.08-6.37A21.37,21.37,0,0,0,429.47,462.08Z" transform="translate(-204.14 -103.18)"/><path class="cls-1" d="M495.94,488.69h-7V479q-8.36,11.13-20.28,11.12a19.18,19.18,0,0,1-11-3.32,18,18,0,0,1-6.94-8.66q-2-5.36-2-15.75V434.56h6.93v25.79q0,9.48.86,12.84a15.79,15.79,0,0,0,2.66,5.71,11.28,11.28,0,0,0,4.53,3.57,16.33,16.33,0,0,0,6.68,1.23,16.74,16.74,0,0,0,7.7-1.94,19,19,0,0,0,6.42-5.4,19.54,19.54,0,0,0,3.56-7.14q.93-3.68.92-14.78V434.56h7Z" transform="translate(-204.14 -103.18)"/><path class="cls-1" d="M511.53,434.56h6.94v9.89q8.25-11.32,21.5-11.32a26.64,26.64,0,0,1,19.68,8.41,27.87,27.87,0,0,1,8.26,20.24,28.18,28.18,0,0,1-8.16,20.28,26.18,26.18,0,0,1-19.57,8.47q-12.43,0-21.71-11.12v29.06h-6.94ZM561,461.88a21.56,21.56,0,0,0-6.27-15.55,21.43,21.43,0,0,0-30.59-.1A21.78,21.78,0,0,0,518,462a21.44,21.44,0,0,0,6.32,15.74,21.11,21.11,0,0,0,30.32-.1A21.63,21.63,0,0,0,561,461.88Z" transform="translate(-204.14 -103.18)"/><g id="SvgjsG1794"><g id="SvgjsG1795"><path class="cls-1" d="M560.8,270.13c-5.24-3.74-9.6-6.77-10.68-5.61s1.66,6.41,7,10.89,11.12,5.75,12.09,3.86S566,273.87,560.8,270.13Z" transform="translate(-204.14 -103.18)"/><path class="cls-1" d="M544.69,272.42c-4.76-5-8.66-8-9.48-6s2.08,8.36,7.16,13.64,10.16,7.17,10.63,4.88S549.43,277.43,544.69,272.42Z" transform="translate(-204.14 -103.18)"/><path class="cls-1" d="M528.69,272.67c-4.5-5.31-8.22-7.46-8.85-4.36A24.73,24.73,0,0,0,527.37,284c5,5.42,9.58,6.82,9.69,3.65A32.4,32.4,0,0,0,528.69,272.67Z" transform="translate(-204.14 -103.18)"/><path class="cls-1" d="M512.36,272.8c-4.45-5.06-8.21-5.91-8.68-1.67a26.32,26.32,0,0,0,8.11,17.06c5.07,5.12,9.31,5.52,9.16,1.23A33.93,33.93,0,0,0,512.36,272.8Z" transform="translate(-204.14 -103.18)"/><path class="cls-1" d="M495.37,273.41c-4.58-4.47-8.49-3.88-8.83,1.44a26.15,26.15,0,0,0,8.82,18c5.25,4.59,9.33,3.69,9-1.73A32.16,32.16,0,0,0,495.37,273.41Z" transform="translate(-204.14 -103.18)"/><path class="cls-1" d="M477.5,274.5c-4.84-3.76-9-1.78-9.26,4.52a25,25,0,0,0,9.6,18.71c5.53,4,9.61,1.72,9.16-4.79A28.87,28.87,0,0,0,477.5,274.5Z" transform="translate(-204.14 -103.18)"/><path class="cls-1" d="M459.13,277.3c-5-3.79-9.45-1.86-10,4.35a24,24,0,0,0,9.23,18.8c5.63,4.16,10.09,2.06,9.94-4.5A27,27,0,0,0,459.13,277.3Z" transform="translate(-204.14 -103.18)"/><path class="cls-1" d="M439.68,280.68c-5-4.22-9.72-3.19-10.6,2.24a22.75,22.75,0,0,0,8.42,18.21c5.58,4.67,10.47,3.69,10.77-2.19A25.62,25.62,0,0,0,439.68,280.68Z" transform="translate(-204.14 -103.18)"/><path class="cls-1" d="M419,283.05c-5-4.65-9.86-4.58-11.07,0a21.13,21.13,0,0,0,7.49,17.38c5.44,5.11,10.65,5.29,11.39.25A23.88,23.88,0,0,0,419,283.05Z" transform="translate(-204.14 -103.18)"/><path class="cls-1" d="M397.31,284.18c-4.76-5.23-9.69-6.32-11.29-2.69a19,19,0,0,0,6.07,16.44c5.07,5.62,10.5,7.17,11.77,3.17A21.78,21.78,0,0,0,397.31,284.18Z" transform="translate(-204.14 -103.18)"/><path class="cls-1" d="M374.44,283.44c-4.48-5.48-9.3-7.37-11.07-4.56s.33,9.47,5,15.22,10,8.2,11.57,5.1S378.91,288.89,374.44,283.44Z" transform="translate(-204.14 -103.18)"/><path class="cls-1" d="M351,281.08c-4.07-5.59-8.64-8.16-10.48-6.05s-.19,8.21,3.94,14,9.18,8.86,10.95,6.59S355,286.67,351,281.08Z" transform="translate(-204.14 -103.18)"/><path class="cls-1" d="M327.42,277.44c-3.59-5.62-7.78-8.73-9.59-7.21s-.53,7.15,3,12.8,8.13,9.2,9.95,7.63S331,283,327.42,277.44Z" transform="translate(-204.14 -103.18)"/><path class="cls-1" d="M304.32,272.9c-3.09-5.6-6.85-9.21-8.55-8.17s-.69,6.34,2.34,11.94,7,9.44,8.76,8.41S307.41,278.51,304.32,272.9Z" transform="translate(-204.14 -103.18)"/><path class="cls-1" d="M275,258.28c1.56-.62,4.72,3.62,7.07,9.48s3,11.12,1.44,11.74-4.72-3.62-7.07-9.48S273.48,258.9,275,258.28Z" transform="translate(-204.14 -103.18)"/><path class="cls-1" d="M543.56,241.52c-2.78-5.21-5.24-9.22-6.36-8.33s-.26,6.54,2.76,12.12,6.81,8.61,7.69,7.35S546.33,246.75,543.56,241.52Z" transform="translate(-204.14 -103.18)"/><path class="cls-1" d="M531.1,239.75c-2.7-5.64-5.31-9.06-6.51-7.21a19.9,19.9,0,0,0,3,14.11c3.12,5.8,6.79,8.51,7.53,6.52A28.07,28.07,0,0,0,531.1,239.75Z" transform="translate(-204.14 -103.18)"/><path class="cls-1" d="M517.48,237.88c-2.81-5.56-5.75-7.93-7-5A21.82,21.82,0,0,0,514,248.45c3.37,5.6,7,7.5,7.69,4.57A30.76,30.76,0,0,0,517.48,237.88Z" transform="translate(-204.14 -103.18)"/><path class="cls-1" d="M502.65,236.54c-3.09-5.14-6.48-6.2-7.77-2.22a22.16,22.16,0,0,0,4.29,16.59c3.74,5.15,7.46,5.94,8.09,2A30,30,0,0,0,502.65,236.54Z" transform="translate(-204.14 -103.18)"/><path class="cls-1" d="M486.59,235.91c-3.48-4.52-7.37-4.18-8.65.8a21.28,21.28,0,0,0,5.19,17.22c4.16,4.55,8,4.08,8.66-.9A27.07,27.07,0,0,0,486.59,235.91Z" transform="translate(-204.14 -103.18)"/><path class="cls-1" d="M469.37,235.86c-4-3.78-8.37-2.09-9.63,3.75a19.93,19.93,0,0,0,6.18,17.58c4.62,3.89,8.75,2.16,9.37-3.78A23.7,23.7,0,0,0,469.37,235.86Z" transform="translate(-204.14 -103.18)"/><path class="cls-1" d="M451.29,237.65c-4.17-3.71-8.81-2-10.21,3.73a19,19,0,0,0,6.13,17.4c4.75,3.91,9.19,2.26,10-3.67A21.82,21.82,0,0,0,451.29,237.65Z" transform="translate(-204.14 -103.18)"/><path class="cls-1" d="M432.16,240.31c-4.21-4-8.89-3-10.42,2A18,18,0,0,0,427.46,259c4.7,4.24,9.37,3.44,10.42-1.84A20.59,20.59,0,0,0,432.16,240.31Z" transform="translate(-204.14 -103.18)"/><path class="cls-1" d="M412.12,242.54c-4.19-4.26-8.87-4.07-10.51.25a16.84,16.84,0,0,0,5.23,15.8c4.57,4.5,9.39,4.58,10.64,0A19.13,19.13,0,0,0,412.12,242.54Z" transform="translate(-204.14 -103.18)"/><path class="cls-1" d="M391.45,244.23c-4-4.69-8.6-5.47-10.42-2a15.56,15.56,0,0,0,4.29,15c4.26,4.88,9.14,6,10.68,2.32A17.71,17.71,0,0,0,391.45,244.23Z" transform="translate(-204.14 -103.18)"/><path class="cls-1" d="M369.94,244.85c-3.81-4.87-8.27-6.33-10.12-3.49s-.27,9,3.7,14,8.73,6.85,10.41,3.86A16,16,0,0,0,369.94,244.85Z" transform="translate(-204.14 -103.18)"/><path class="cls-1" d="M348,244.55c-3.55-5-7.8-7.06-9.64-4.82s-.49,8,3.13,13,8.15,7.49,9.9,5.18S351.53,249.53,348,244.55Z" transform="translate(-204.14 -103.18)"/><path class="cls-1" d="M325.85,243.41c-3.24-5.09-7.22-7.72-9-6s-.65,7.11,2.61,12.23,7.43,8,9.19,6.28S329.09,248.49,325.85,243.41Z" transform="translate(-204.14 -103.18)"/><path class="cls-1" d="M303.79,241.53c-2.92-5.21-6.58-8.38-8.25-7.17s-.71,6.41,2.2,11.63,6.68,8.51,8.36,7.28S306.71,246.74,303.79,241.53Z" transform="translate(-204.14 -103.18)"/><path class="cls-1" d="M274.23,230.71c1.54-.81,5,2.88,7.82,8.23s3.78,10.34,2.24,11.14-5.05-2.88-7.83-8.24S272.68,231.51,274.23,230.71Z" transform="translate(-204.14 -103.18)"/><path class="cls-1" d="M538.94,209.11c-.52-5.75-1.37-10.19-2.76-9.6s-2.47,6.22-1.65,12.28,3,10,4,9.09A24.3,24.3,0,0,0,538.94,209.11Z" transform="translate(-204.14 -103.18)"/><path class="cls-1" d="M528.27,204.65c-.75-5.93-2.26-9.66-4-8a19.89,19.89,0,0,0-1.33,14.18c1.23,6.07,3.72,9.3,4.94,7.53A28.86,28.86,0,0,0,528.27,204.65Z" transform="translate(-204.14 -103.18)"/><path class="cls-1" d="M515.81,201c-1.18-5.76-3.48-8.37-5.5-5.58a21.1,21.1,0,0,0-.67,15.6c1.79,5.75,4.67,8,6.06,5.2A29.75,29.75,0,0,0,515.81,201Z" transform="translate(-204.14 -103.18)"/><path class="cls-1" d="M501.64,198.53c-1.76-5.28-4.91-6.53-7.13-2.62a20.56,20.56,0,0,0,.29,16.52c2.42,5.2,5.75,6.21,7.3,2.41A27.58,27.58,0,0,0,501.64,198.53Z" transform="translate(-204.14 -103.18)"/><path class="cls-1" d="M485.92,197.14c-2.44-4.61-6.43-4.37-8.77.55a19,19,0,0,0,1.46,17c3.09,4.52,6.89,4.23,8.58-.58A24.33,24.33,0,0,0,485.92,197.14Z" transform="translate(-204.14 -103.18)"/><path class="cls-1" d="M468.81,196.71c-3.19-3.81-7.95-2.11-10.31,3.68a17.1,17.1,0,0,0,2.73,17.21c3.77,3.77,8.06,2.19,9.85-3.56A20.58,20.58,0,0,0,468.81,196.71Z" transform="translate(-204.14 -103.18)"/><path class="cls-1" d="M450.46,198.49c-3.47-3.66-8.46-1.85-10.82,3.87a16.12,16.12,0,0,0,3.1,16.87c4,3.69,8.52,2.09,10.39-3.65A18.84,18.84,0,0,0,450.46,198.49Z" transform="translate(-204.14 -103.18)"/><path class="cls-1" d="M431,201.53a6.11,6.11,0,0,0-10.66,2.37,15.28,15.28,0,0,0,3.17,16,5.8,5.8,0,0,0,10.42-2.09A17.59,17.59,0,0,0,431,201.53Z" transform="translate(-204.14 -103.18)"/><path class="cls-1" d="M410.72,204.53a5.91,5.91,0,0,0-10.45.8,14.48,14.48,0,0,0,3.18,15.15c3.89,4.1,8.52,4,10.35-.5A16.37,16.37,0,0,0,410.72,204.53Z" transform="translate(-204.14 -103.18)"/><path class="cls-1" d="M390.05,207.36c-3.42-4.38-7.95-4.85-10.1-1.24a13.8,13.8,0,0,0,2.73,14.39c3.66,4.44,8.22,5.22,10.13,1.55A15.48,15.48,0,0,0,390.05,207.36Z" transform="translate(-204.14 -103.18)"/><path class="cls-1" d="M368.76,209.48c-3.34-4.53-7.68-5.64-9.72-2.68a13,13,0,0,0,2.61,13.48c3.5,4.56,7.92,6,9.8,3A14.25,14.25,0,0,0,368.76,209.48Z" transform="translate(-204.14 -103.18)"/><path class="cls-1" d="M347.16,210.91c-3.21-4.65-7.34-6.37-9.26-4s-.84,8,2.46,12.65,7.51,6.64,9.34,4.24S350.37,215.56,347.16,210.91Z" transform="translate(-204.14 -103.18)"/><path class="cls-1" d="M325.4,211.61c-3-4.79-6.93-7.1-8.73-5.27s-.79,7.14,2.29,11.95,7,7.29,8.79,5.43S328.44,216.39,325.4,211.61Z" transform="translate(-204.14 -103.18)"/><path class="cls-1" d="M303.64,211.51c-2.84-5-6.47-7.87-8.15-6.53s-.73,6.45,2.11,11.44,6.5,8,8.17,6.6S306.47,216.48,303.64,211.51Z" transform="translate(-204.14 -103.18)"/><path class="cls-1" d="M273.86,203c1.54-.91,5.2,2.45,8.18,7.51s4.13,9.89,2.59,10.8-5.2-2.46-8.18-7.52S272.32,203.91,273.86,203Z" transform="translate(-204.14 -103.18)"/><path class="cls-1" d="M547,177.16c1.74-5.77,2.54-10.78.9-11s-4.8,4.84-6.23,11-.87,10.88.45,10.68S545.29,183,547,177.16Z" transform="translate(-204.14 -103.18)"/><path class="cls-1" d="M538,167.41c1.3-6.18.94-10.63-1.43-9.54a20.78,20.78,0,0,0-6.09,13.75c-.79,6.35.53,10.23,2.34,9A28.51,28.51,0,0,0,538,167.41Z" transform="translate(-204.14 -103.18)"/><path class="cls-1" d="M526.31,159.9c.57-6.13-1.15-9.37-4.13-6.84a23.51,23.51,0,0,0-5.37,15.79c.1,6.06,2.29,8.73,4.57,6.3A30.82,30.82,0,0,0,526.31,159.9Z" transform="translate(-204.14 -103.18)"/><path class="cls-1" d="M512.09,155c-.39-5.66-3.5-7.24-6.9-3.28a22.74,22.74,0,0,0-4.14,17.06c1.09,5.41,4.17,6.62,6.87,2.94A29.07,29.07,0,0,0,512.09,155Z" transform="translate(-204.14 -103.18)"/><path class="cls-1" d="M495.67,152.8c-1.48-4.85-5.88-4.56-9.52.69a20,20,0,0,0-2.55,17.62c2.11,4.52,6.06,4.18,9.07-.72A24.87,24.87,0,0,0,495.67,152.8Z" transform="translate(-204.14 -103.18)"/><path class="cls-1" d="M477.43,152.85c-2.59-3.84-8.12-1.67-11.8,4.62a16.69,16.69,0,0,0-.75,17.64c3.09,3.55,7.83,1.65,11-4.36A20.1,20.1,0,0,0,477.43,152.85Z" transform="translate(-204.14 -103.18)"/><path class="cls-1" d="M457.43,156.23c-3-3.51-8.7-1-12.19,5.23a15.25,15.25,0,0,0,.17,17.15c3.42,3.33,8.37,1.24,11.48-4.85A17.87,17.87,0,0,0,457.43,156.23Z" transform="translate(-204.14 -103.18)"/><path class="cls-1" d="M436.19,161.63c-3.14-3.59-8.5-1.75-11.62,3.81a14.33,14.33,0,0,0,.86,16.2c3.45,3.49,8.29,2.06,11.09-3.42A16.42,16.42,0,0,0,436.19,161.63Z" transform="translate(-204.14 -103.18)"/><path class="cls-1" d="M414.43,167.33c-3.21-3.72-8.26-2.64-11,2.17a13.5,13.5,0,0,0,1.42,15.19,6.18,6.18,0,0,0,8.69,1,6.1,6.1,0,0,0,2-2.79A15.08,15.08,0,0,0,414.43,167.33Z" transform="translate(-204.14 -103.18)"/><path class="cls-1" d="M392.53,172.88a6,6,0,0,0-8.08-2.32,6,6,0,0,0-2.28,2.25,13.12,13.12,0,0,0,1.43,14.41c3.31,4.09,7.82,4.34,10.17.39A14.48,14.48,0,0,0,392.53,172.88Z" transform="translate(-204.14 -103.18)"/><path class="cls-1" d="M370.32,177.52c-3.09-4.28-7.53-5-9.82-1.73a12.43,12.43,0,0,0,1.76,13.46c3.23,4.27,7.55,5.22,9.7,2A13.36,13.36,0,0,0,370.32,177.52Z" transform="translate(-204.14 -103.18)"/><path class="cls-1" d="M348.07,181.08c-3-4.46-7.23-5.88-9.29-3.32a11.93,11.93,0,0,0,2,12.61c3.12,4.46,7.25,6.09,9.23,3.52A12.59,12.59,0,0,0,348.07,181.08Z" transform="translate(-204.14 -103.18)"/><path class="cls-1" d="M325.86,183.33c-2.94-4.66-6.88-6.81-8.75-4.88s-.93,7.23,2.05,11.93,6.89,7,8.71,5S328.81,188,325.86,183.33Z" transform="translate(-204.14 -103.18)"/><path class="cls-1" d="M303.81,184.05c-2.81-4.93-6.48-7.8-8.18-6.45s-.77,6.48,2.05,11.46,6.46,7.89,8.14,6.49S306.62,189,303.81,184.05Z" transform="translate(-204.14 -103.18)"/><path class="cls-1" d="M274.06,175.08c1.55-.85,5.12,2.68,8,7.9s3.94,10.13,2.39,11-5.12-2.69-8-7.9S272.51,175.93,274.06,175.08Z" transform="translate(-204.14 -103.18)"/><path class="cls-1" d="M567.88,150.23c4-5.16,6.42-10.68,4.5-12s-7.12,2.58-10.76,8.46-4.68,11-3.13,11.67S563.86,155.42,567.88,150.23Z" transform="translate(-204.14 -103.18)"/><path class="cls-1" d="M560.29,133.74c3.28-6.28,4-11.73.91-11.52s-8.08,6.24-10.74,12.83-2.43,11.11,0,10.61S557,140,560.29,133.74Z" transform="translate(-204.14 -103.18)"/><path class="cls-1" d="M548.78,120.65c2.16-6.69.86-11-3.12-8.88a27.2,27.2,0,0,0-9.88,16.16c-1.41,6.58.25,9.88,3.46,7.93A31.63,31.63,0,0,0,548.78,120.65Z" transform="translate(-204.14 -103.18)"/><path class="cls-1" d="M533.68,111.78c.78-6.4-2.5-8.73-7.15-4.71a27.86,27.86,0,0,0-8.32,18.28c0,6,3,7.6,6.95,4.06A32.2,32.2,0,0,0,533.68,111.78Z" transform="translate(-204.14 -103.18)"/><path class="cls-1" d="M515.55,107.27c-.75-5.54-5.82-5.47-10.85.26a24.29,24.29,0,0,0-6.26,19.24c1.38,4.93,5.75,4.69,10.15-.41A28.5,28.5,0,0,0,515.55,107.27Z" transform="translate(-204.14 -103.18)"/><path class="cls-1" d="M495,106.68c-2.27-4.28-8.84-1.77-14,5.32a19.24,19.24,0,0,0-3.91,19.28c2.69,3.71,8.2,1.55,12.91-5A22.75,22.75,0,0,0,495,106.68Z" transform="translate(-204.14 -103.18)"/><path class="cls-1" d="M472.14,111c-2.83-3.72-9.55-.6-14.3,6.55s-5.61,15.3-2.48,18.62,8.84.78,13.31-6S475,114.72,472.14,111Z" transform="translate(-204.14 -103.18)"/><path class="cls-1" d="M447.83,118.48c-3-3.67-9.16-1.12-13.26,5.26a15.4,15.4,0,0,0-1.25,17.42c3.21,3.4,8.59,1.44,12.48-4.7A17.7,17.7,0,0,0,447.83,118.48Z" transform="translate(-204.14 -103.18)"/><path class="cls-1" d="M423.25,126.85c-3.08-3.7-8.76-1.93-12.27,3.58a14,14,0,0,0-.18,16.13c3.26,3.55,8.34,2.3,11.66-3.06A15.76,15.76,0,0,0,423.25,126.85Z" transform="translate(-204.14 -103.18)"/><path class="cls-1" d="M398.86,135.31a6.54,6.54,0,0,0-11.19,1.13,13.51,13.51,0,0,0,.25,15.14,6.2,6.2,0,0,0,10.77-.72A14.83,14.83,0,0,0,398.86,135.31Z" transform="translate(-204.14 -103.18)"/><path class="cls-1" d="M374.57,142.81a6.09,6.09,0,0,0-8.19-2.64,6,6,0,0,0-2.19,1.91,12.45,12.45,0,0,0,1,13.92c3.11,4.11,7.55,4.67,10.09,1.05A13.34,13.34,0,0,0,374.57,142.81Z" transform="translate(-204.14 -103.18)"/><path class="cls-1" d="M350.66,148.93c-3-4.33-7.4-5.38-9.68-2.53a11.71,11.71,0,0,0,1.53,12.86c3.06,4.32,7.26,5.63,9.46,2.78A12.31,12.31,0,0,0,350.66,148.93Z" transform="translate(-204.14 -103.18)"/><path class="cls-1" d="M327.21,153.3c-3-4.55-7-6.42-9-4.32s-1.1,7.44,1.88,12,6.93,6.61,8.89,4.48S330.16,157.83,327.21,153.3Z" transform="translate(-204.14 -103.18)"/><path class="cls-1" d="M304.29,155.52c-2.84-4.84-6.61-7.56-8.36-6.14s-.82,6.54,2,11.45,6.53,7.69,8.27,6.19S307.14,160.35,304.29,155.52Z" transform="translate(-204.14 -103.18)"/><path class="cls-1" d="M274.08,147.22c1.56-.86,5.15,2.68,8,7.89s3.93,10.14,2.37,11-5.15-2.68-8-7.9S272.52,148.07,274.08,147.22Z" transform="translate(-204.14 -103.18)"/></g></g></svg>